<?xml version="1.0" encoding="UTF-8" standalone="no"?>
<!-- Created with Inkscape (http://www.inkscape.org/) -->

<svg
   xmlns:dc="http://purl.org/dc/elements/1.1/"
   xmlns:cc="http://creativecommons.org/ns#"
   xmlns:rdf="http://www.w3.org/1999/02/22-rdf-syntax-ns#"
   xmlns:svg="http://www.w3.org/2000/svg"
   xmlns="http://www.w3.org/2000/svg"
   xmlns:sodipodi="http://sodipodi.sourceforge.net/DTD/sodipodi-0.dtd"
   xmlns:inkscape="http://www.inkscape.org/namespaces/inkscape"
   width="145.57143mm"
   height="145.57143mm"
   viewBox="0 0 145.57143 145.57143"
   version="1.1"
   id="svg8"
   inkscape:version="0.92.4 (5da689c313, 2019-01-14)"
   sodipodi:docname="quitstore_allpath.svg"
   inkscape:export-filename="/home/natanael/Dokumente/Projekte/Quit/QuitStore/assets/quitstore.png"
   inkscape:export-xdpi="209.38"
   inkscape:export-ydpi="209.38">
  <defs
     id="defs2">
    <inkscape:path-effect
       effect="envelope"
       id="path-effect1711"
       is_visible="true"
       yy="true"
       xx="true"
       bendpath1="m -122.22832,-43.023813 c 8.1085,1.363689 16.36772,1.651921 20.86953,1.661398 4.492655,0.0095 12.755717,-0.267483 20.869527,-1.621607"
       bendpath2="M -80.346355,-43.066879 V -8.2633133"
       bendpath3="m -122.22832,-8.670813 c 8.1085,1.363689 16.36772,1.6519207 20.86953,1.6613981 4.492655,0.00947 12.755717,-0.2674831 20.869527,-1.6216074"
       bendpath4="M -122.35066,-43.066879 V -8.2633133" />
    <inkscape:path-effect
       effect="envelope"
       id="path-effect1430"
       is_visible="true"
       yy="true"
       xx="true"
       bendpath1="m -106.79895,37.376793 c 10.437449,4.680421 27.180193,5.396445 34.361733,5.411555 7.164882,0.01512 23.918728,-0.689983 34.361726,-5.351095"
       bendpath2="m -38.05006,37.414267 v 28.44788"
       bendpath3="m -106.79895,65.818177 c 10.437449,4.680421 27.180193,5.396445 34.361733,5.411555 7.164882,0.01511 23.918728,-0.689983 34.361726,-5.351095"
       bendpath4="m -106.90585,37.414267 v 28.44788"
       bendpath1-nodetypes="ccc"
       bendpath3-nodetypes="ccc" />
    <inkscape:path-effect
       effect="envelope"
       id="path-effect1167"
       is_visible="true"
       yy="true"
       xx="true"
       bendpath1="m -56.183504,127.84379 c 7.945623,1.29224 15.958859,1.5661 20.367749,1.5751 4.399947,0.009 12.416943,-0.25249 20.367749,-1.53531"
       bendpath2="m -15.239744,127.97176 v 25"
       bendpath3="m -56.307216,152.88471 c 7.945623,1.29224 15.958859,1.5661 20.367749,1.5751 4.399947,0.009 12.416943,-0.25249 20.367749,-1.53531"
       bendpath4="m -56.239744,127.97176 v 25"
       bendpath1-nodetypes="ccc"
       bendpath3-nodetypes="ccc" />
    <inkscape:path-effect
       effect="perspective-envelope"
       up_left_point="-56.239744,127.97176"
       up_right_point="-15.239744,127.97176"
       down_left_point="-56.239744,152.97176"
       down_right_point="-15.239744,152.97176"
       id="path-effect1165"
       is_visible="true"
       deform_type="perspective"
       horizontal_mirror="false"
       vertical_mirror="false"
       overflow_perspective="false" />
    <inkscape:perspective
       sodipodi:type="inkscape:persp3d"
       inkscape:vp_x="0 : 100 : 1"
       inkscape:vp_y="0 : 1000 : 0"
       inkscape:vp_z="200 : 100 : 1"
       inkscape:persp3d-origin="100 : 66.666669 : 1"
       id="perspective878" />
    <filter
       inkscape:collect="always"
       style="color-interpolation-filters:sRGB"
       id="filter1123"
       x="-0.2990616"
       width="1.5981232"
       y="-0.033344958"
       height="1.0666898">
      <feGaussianBlur
         inkscape:collect="always"
         stdDeviation="0.99451195"
         id="feGaussianBlur1125" />
    </filter>
    <filter
       inkscape:collect="always"
       style="color-interpolation-filters:sRGB"
       id="filter1567"
       x="-0.57144612"
       width="2.1428924"
       y="-0.067038864"
       height="1.1340777">
      <feGaussianBlur
         inkscape:collect="always"
         stdDeviation="1.9003123"
         id="feGaussianBlur1569" />
    </filter>
    <filter
       inkscape:collect="always"
       style="color-interpolation-filters:sRGB"
       id="filter1571"
       x="-0.57144612"
       width="2.1428924"
       y="-0.067038864"
       height="1.1340777">
      <feGaussianBlur
         inkscape:collect="always"
         stdDeviation="1.9003122"
         id="feGaussianBlur1573" />
    </filter>
    <filter
       inkscape:collect="always"
       style="color-interpolation-filters:sRGB"
       id="filter1579"
       x="-0.044548597"
       width="1.0890971"
       y="-0.091861628"
       height="1.1837233">
      <feGaussianBlur
         inkscape:collect="always"
         stdDeviation="1.4127417"
         id="feGaussianBlur1581" />
    </filter>
    <filter
       inkscape:collect="always"
       style="color-interpolation-filters:sRGB"
       id="filter1787"
       x="-0.30000001"
       width="1.6"
       y="-0.30000001"
       height="1.6">
      <feGaussianBlur
         inkscape:collect="always"
         stdDeviation="0.70079982"
         id="feGaussianBlur1789" />
    </filter>
    <filter
       inkscape:collect="always"
       style="color-interpolation-filters:sRGB"
       id="filter1795"
       x="-0.47999999"
       width="1.96"
       y="-0.47999999"
       height="1.96">
      <feGaussianBlur
         inkscape:collect="always"
         stdDeviation="0.8"
         id="feGaussianBlur1797" />
    </filter>
    <filter
       inkscape:collect="always"
       style="color-interpolation-filters:sRGB"
       id="filter1887"
       x="-0.027158098"
       width="1.0543162"
       y="-0.20638826"
       height="1.4127765">
      <feGaussianBlur
         inkscape:collect="always"
         stdDeviation="0.81437976"
         id="feGaussianBlur1889" />
    </filter>
    <filter
       inkscape:collect="always"
       style="color-interpolation-filters:sRGB"
       id="filter986"
       x="-0.28229263"
       width="1.5645852"
       y="-0.012532756"
       height="1.0250655">
      <feGaussianBlur
         inkscape:collect="always"
         stdDeviation="0.22723327"
         id="feGaussianBlur988" />
    </filter>
    <filter
       inkscape:collect="always"
       style="color-interpolation-filters:sRGB"
       id="filter2222"
       x="-0.19368055"
       width="1.387361"
       y="-0.16812459"
       height="1.3362492">
      <feGaussianBlur
         inkscape:collect="always"
         stdDeviation="6.9897499"
         id="feGaussianBlur2224" />
    </filter>
  </defs>
  <sodipodi:namedview
     id="base"
     pagecolor="#ffffff"
     bordercolor="#666666"
     borderopacity="1.0"
     inkscape:pageopacity="0.0"
     inkscape:pageshadow="2"
     inkscape:zoom="0.9899495"
     inkscape:cx="350.30063"
     inkscape:cy="345.76329"
     inkscape:document-units="mm"
     inkscape:current-layer="layer1"
     showgrid="false"
     inkscape:window-width="1920"
     inkscape:window-height="1024"
     inkscape:window-x="1920"
     inkscape:window-y="28"
     inkscape:window-maximized="1"
     showguides="true"
     fit-margin-top="0"
     fit-margin-left="0"
     fit-margin-right="0"
     fit-margin-bottom="0" />
  <metadata
     id="metadata5">
    <rdf:RDF>
      <cc:Work
         rdf:about="">
        <dc:format>image/svg+xml</dc:format>
        <dc:type
           rdf:resource="http://purl.org/dc/dcmitype/StillImage" />
        <dc:title></dc:title>
      </cc:Work>
    </rdf:RDF>
  </metadata>
  <g
     inkscape:label="Layer 1"
     inkscape:groupmode="layer"
     id="layer1"
     transform="translate(1.4409256,-46.509911)">
    <path
       style="opacity:1;fill:#484537;fill-opacity:1;stroke:none;stroke-width:3.46111584;stroke-linecap:round;stroke-linejoin:round;stroke-miterlimit:4;stroke-dasharray:none;stroke-opacity:1;paint-order:stroke markers fill"
       d="M 144.1305,119.29562 A 72.785713,72.785713 0 0 1 71.344788,192.08134 72.785713,72.785713 0 0 1 -1.4409256,119.29562 72.785713,72.785713 0 0 1 71.344788,46.509911 72.785713,72.785713 0 0 1 144.1305,119.29562 Z"
       id="path900" />
    <path
       style="opacity:0.5;fill:#000000;fill-opacity:1;stroke:none;stroke-width:10.31765747;stroke-linecap:round;stroke-linejoin:round;stroke-miterlimit:4;stroke-dasharray:none;stroke-opacity:1;paint-order:stroke markers fill;filter:url(#filter2222)"
       d="m 76.266621,64.428971 c -10.780969,0.02269 -43.112178,0.04292 -43.302782,14.261662 h -0.0041 c 3.8e-5,0.0181 0.0019,0.03575 0.0021,0.05374 -5.6e-5,0.0072 -5.29e-4,0.01415 -0.0011,0.02119 h -0.0011 v 4.757849 c 0.0029,1.441912 0.339149,2.736488 0.944129,3.903121 v 62.724337 c 5.29e-4,0.21897 0.0091,0.43429 0.02479,0.64647 0.06292,0.84874 0.246492,1.64396 0.537952,2.38849 0.291456,0.74452 0.690782,1.43851 1.184939,2.08566 0.37062,0.48536 0.794155,0.94426 1.266074,1.37821 9.2e-5,8e-5 5.29e-4,-8e-5 5.29e-4,0 0.157218,0.14456 0.319656,0.28674 0.487309,0.42581 1.01e-4,9e-5 5.29e-4,-8e-5 5.29e-4,0 0.167659,0.13906 0.340109,0.2756 0.517801,0.40928 1.08e-4,8e-5 5.29e-4,-8e-5 5.29e-4,0 0.711107,0.53495 1.500828,1.02755 2.356445,1.48053 1.35e-4,7e-5 2.65e-4,-7e-5 5.29e-4,0 0.855636,0.45296 1.776942,0.86654 2.751254,1.24437 1.51e-4,6e-5 2.65e-4,-6e-5 5.29e-4,0 0.243473,0.0944 0.490133,0.187 0.740008,0.27698 1.54e-4,6e-5 2.65e-4,-5e-5 5.29e-4,0 0.249878,0.09 0.502732,0.17789 0.758611,0.26355 1.56e-4,6e-5 2.65e-4,-5e-5 5.29e-4,0 0.255881,0.0857 0.514702,0.16918 0.776179,0.25063 1.59e-4,5e-5 2.65e-4,-5e-5 5.29e-4,0 0.261483,0.0814 0.525524,0.16141 0.7922,0.23875 1.59e-4,5e-5 2.64e-4,-5e-5 5.29e-4,0 0.533516,0.15473 1.076965,0.30134 1.628841,0.44028 1.64e-4,4e-5 2.65e-4,-4e-5 5.29e-4,0 1.655977,0.41689 3.387429,0.76462 5.150591,1.05472 1.69e-4,3e-5 2.65e-4,-3e-5 5.29e-4,0 1.763176,0.29008 3.558117,0.52264 5.341276,0.709 1.72e-4,2e-5 2.65e-4,-2e-5 5.29e-4,0 0.59427,0.0621 1.187117,0.11927 1.777151,0.17157 1.72e-4,1e-5 2.65e-4,-2e-5 5.29e-4,0 1.180235,0.10459 2.348902,0.19051 3.49281,0.26096 1.69e-4,1e-5 2.64e-4,-1e-5 5.29e-4,0 0.57186,0.0352 1.137565,0.0666 1.695505,0.0946 1.7e-4,1e-5 2.65e-4,-1e-5 5.3e-4,0 2.232236,0.11189 4.340084,0.16895 6.22029,0.19895 1.64e-4,1e-5 2.65e-4,0 5.29e-4,0 1.880124,0.03 3.532553,0.0329 4.853967,0.0357 1.53e-4,0 2.64e-4,0 5.29e-4,0 3.303993,0.007 8.692741,0.009 14.536571,-0.41961 1.168774,-0.0858 2.355408,-0.18845 3.547562,-0.31213 1.192151,-0.12368 2.389648,-0.26825 3.579098,-0.43666 1.18946,-0.16842 2.370884,-0.36087 3.531564,-0.58085 2.32136,-0.43996 4.5591,-0.98971 6.6089,-1.6769 0.51245,-0.17179 1.01335,-0.35219 1.50068,-0.54157 0.97466,-0.37876 1.89561,-0.79376 2.75022,-1.24798 0.42731,-0.22711 0.83801,-0.46381 1.23042,-0.71107 1.76582,-1.11265 3.16195,-2.43372 4.03954,-4.00182 0.19502,-0.34847 0.36424,-0.70932 0.50643,-1.08262 0.0711,-0.18666 0.13548,-0.37646 0.19276,-0.56948 0.11455,-0.38605 0.20102,-0.78466 0.25786,-1.19682 0.0568,-0.41217 0.0842,-0.83779 0.0801,-1.27693 v -0.11782 c 0.006,-0.002 0.011,-0.003 0.0165,-0.005 l -0.0152,-62.515041 c 0.61965,-1.189441 0.95701,-2.512787 0.9431,-3.989937 v -4.726327 h 5.3e-4 c 4e-5,-0.0046 -3.5e-4,-0.0089 -5.3e-4,-0.01344 v -0.01809 h -5.3e-4 c -4.2e-4,-0.0072 -10e-4,-0.01437 -10e-4,-0.0217 -7e-5,-0.01779 0.002,-0.03534 0.002,-0.05323 h -0.003 C 119.54206,64.432276 87.047678,64.406327 76.266621,64.428971 Z"
       id="path815-2"
       inkscape:connector-curvature="0" />
    <path
       style="opacity:1;fill:#ffcc00;fill-opacity:1;stroke:none;stroke-width:10.31765747;stroke-linecap:round;stroke-linejoin:round;stroke-miterlimit:4;stroke-dasharray:none;stroke-opacity:1;paint-order:stroke markers fill"
       d="m 25.856781,89.382455 v 68.153975 c 0.02789,14.01377 31.78993,14.03218 42.362271,14.05444 10.572341,0.0223 42.494088,-0.002 42.361768,-14.05444 V 89.382455 Z"
       id="path815"
       inkscape:connector-curvature="0"
       sodipodi:nodetypes="cczccc" />
    <path
       style="opacity:0.4;fill:#ffffff;stroke:none;stroke-width:0.26458332px;stroke-linecap:butt;stroke-linejoin:miter;stroke-opacity:1;filter:url(#filter1579)"
       d="M 102.61646,160.96234 C 73.240988,162.69526 36.837291,142.684 26.506758,131.28849 l 2.138155,28.59783 c 0,0 21.381563,7.75082 37.952274,8.28536 16.570705,0.53454 36.019273,-7.20934 36.019273,-7.20934 z"
       id="path1105"
       inkscape:connector-curvature="0"
       sodipodi:nodetypes="cccsc" />
    <path
       style="opacity:0.5;fill:#ffffff;fill-opacity:1;stroke:none;stroke-width:12.27105999;stroke-linecap:round;stroke-linejoin:round;stroke-miterlimit:4;stroke-dasharray:none;stroke-opacity:1;paint-order:stroke markers fill;filter:url(#filter1795)"
       d="m 94.807693,121.97816 a 2,2 0 0 1 -2,2 2,2 0 0 1 -2,-2 2,2 0 0 1 2,-2 2,2 0 0 1 2,2 z"
       id="path1003" />
    <path
       style="opacity:0.5;fill:#ffffff;fill-opacity:1;stroke:none;stroke-width:20.09796906;stroke-linecap:round;stroke-linejoin:round;stroke-miterlimit:4;stroke-dasharray:none;stroke-opacity:1;paint-order:stroke markers fill"
       d="m 71.54424,116.05251 a 3.2756696,3.2756696 0 0 1 -3.27567,3.27567 3.2756696,3.2756696 0 0 1 -3.27567,-3.27567 3.2756696,3.2756696 0 0 1 3.27567,-3.27567 3.2756696,3.2756696 0 0 1 3.27567,3.27567 z"
       id="path1003-3" />
    <path
       style="opacity:0.5;fill:#ffffff;fill-opacity:1;stroke:none;stroke-width:8.63655186;stroke-linecap:round;stroke-linejoin:round;stroke-miterlimit:4;stroke-dasharray:none;stroke-opacity:1;paint-order:stroke markers fill"
       d="m 86.503949,113.17178 a 1.4802828,1.3385416 0 0 1 -1.480283,1.33855 1.4802828,1.3385416 0 0 1 -1.480282,-1.33855 1.4802828,1.3385416 0 0 1 1.480282,-1.33854 1.4802828,1.3385416 0 0 1 1.480283,1.33854 z"
       id="path1003-6" />
    <path
       style="opacity:0.5;fill:#ffffff;fill-opacity:1;stroke:none;stroke-width:7.92277718;stroke-linecap:round;stroke-linejoin:round;stroke-miterlimit:4;stroke-dasharray:none;stroke-opacity:1;paint-order:stroke markers fill"
       d="m 50.119969,152.84676 a 1.2912947,1.2912947 0 0 1 -1.291295,1.29129 1.2912947,1.2912947 0 0 1 -1.291294,-1.29129 1.2912947,1.2912947 0 0 1 1.291294,-1.2913 1.2912947,1.2912947 0 0 1 1.291295,1.2913 z"
       id="path1003-62" />
    <path
       style="opacity:0.5;fill:#ffffff;fill-opacity:1;stroke:none;stroke-width:9.95197582;stroke-linecap:round;stroke-linejoin:round;stroke-miterlimit:4;stroke-dasharray:none;stroke-opacity:1;paint-order:stroke markers fill"
       d="m 98.693664,136.03932 a 1.6220238,1.6220238 0 0 1 -1.622024,1.62203 1.6220238,1.6220238 0 0 1 -1.622024,-1.62203 1.6220238,1.6220238 0 0 1 1.622024,-1.62202 1.6220238,1.6220238 0 0 1 1.622024,1.62202 z"
       id="path1003-61" />
    <path
       style="opacity:0.5;fill:#ffffff;fill-opacity:1;stroke:none;stroke-width:17.19911385;stroke-linecap:round;stroke-linejoin:round;stroke-miterlimit:4;stroke-dasharray:none;stroke-opacity:1;paint-order:stroke markers fill;filter:url(#filter1787)"
       d="m 93.384155,155.8723 a 2.8031993,2.8031993 0 0 1 -2.803199,2.8032 2.8031993,2.8031993 0 0 1 -2.8032,-2.8032 2.8031993,2.8031993 0 0 1 2.8032,-2.8032 2.8031993,2.8031993 0 0 1 2.803199,2.8032 z"
       id="path1003-8" />
    <path
       style="fill:#ffe680;stroke:#ffe680;stroke-width:0.5;stroke-linecap:round;stroke-linejoin:miter;stroke-miterlimit:4;stroke-dasharray:none;stroke-opacity:1"
       d="m 72.944836,118.19229 16.370261,3.34086"
       id="path856"
       inkscape:connector-curvature="0"
       sodipodi:nodetypes="cc" />
    <path
       style="fill:#ffe680;stroke:#ffe680;stroke-width:0.5;stroke-linecap:round;stroke-linejoin:miter;stroke-miterlimit:4;stroke-dasharray:none;stroke-opacity:1"
       d="m 82.332682,113.78233 -9.421247,1.46998"
       id="path856-3"
       inkscape:connector-curvature="0"
       sodipodi:nodetypes="cc" />
    <path
       style="fill:#ffe680;stroke:#ffe680;stroke-width:0.5;stroke-linecap:round;stroke-linejoin:miter;stroke-miterlimit:4;stroke-dasharray:none;stroke-opacity:1"
       d="M 96.118009,132.99365 94.096308,125.5928"
       id="path856-3-6"
       inkscape:connector-curvature="0"
       sodipodi:nodetypes="cc" />
    <path
       style="fill:#ffe680;stroke:#ffe680;stroke-width:0.5;stroke-linecap:round;stroke-linejoin:miter;stroke-miterlimit:4;stroke-dasharray:none;stroke-opacity:1"
       d="m 92.502712,152.33722 3.801594,-13.34209"
       id="path856-3-7"
       inkscape:connector-curvature="0"
       sodipodi:nodetypes="cc" />
    <path
       style="fill:#ffe680;stroke:#ffe680;stroke-width:0.5;stroke-linecap:round;stroke-linejoin:miter;stroke-miterlimit:4;stroke-dasharray:none;stroke-opacity:1"
       d="M 65.707314,120.30238 50.21643,150.37557"
       id="path856-3-5"
       inkscape:connector-curvature="0"
       sodipodi:nodetypes="cc" />
    <path
       style="opacity:0.5;fill:#ffffff;fill-opacity:1;stroke:none;stroke-width:5.77350235;stroke-linecap:round;stroke-linejoin:round;stroke-miterlimit:4;stroke-dasharray:none;stroke-opacity:1;paint-order:stroke markers fill;filter:url(#filter1123)"
       d="m 99.970607,90.440789 h 7.964363 l 0.0167,68.031421 c -2.67826,0.7163 -5.05223,1.57934 -7.981063,3.54847 z"
       id="rect882-3-5"
       inkscape:connector-curvature="0"
       sodipodi:nodetypes="ccccc" />
    <path
       style="opacity:1;fill:#e3e2db;fill-opacity:1;stroke:none;stroke-width:0.26458332px;stroke-linecap:butt;stroke-linejoin:miter;stroke-opacity:1"
       d="m 110.58057,92.508362 -0.67903,0.275436 c 0,0 -2.17322,58.870222 -5.10253,64.067402 -2.92931,5.19717 -18.190188,10.09152 -37.466974,10.28051 -19.276785,0.18898 -35.671577,-7.35119 -37.466963,-10.28051 -1.795386,-2.92931 -2.551414,-42.23906 -3.401859,-63.7837 l -0.606682,-0.345196 v 64.814126 c 0.02789,14.01377 31.789931,15.61968 42.362271,15.64194 10.572339,0.0223 42.494087,-1.5895 42.361767,-15.64194 z"
       id="path885"
       inkscape:connector-curvature="0"
       sodipodi:nodetypes="cccsccccccc" />
    <path
       style="fill:#ffffff;stroke:none;stroke-width:0.26458332px;stroke-linecap:butt;stroke-linejoin:miter;stroke-opacity:1;filter:url(#filter1887)"
       d="m 102.61646,160.96234 c -26.919349,13.25128 -55.081001,5.81048 -63.96344,2.21971 -8.88244,-3.59078 -10.291296,-0.96981 -4.630208,2.45684 5.661086,3.42665 49.02584,14.4286 68.593648,-4.67655 z"
       id="path999"
       inkscape:connector-curvature="0"
       sodipodi:nodetypes="cssc" />
    <path
       style="fill:#ffffff;stroke:none;stroke-width:0.26458332px;stroke-linecap:butt;stroke-linejoin:miter;stroke-opacity:1;filter:url(#filter986)"
       d="m 26.463288,116.82264 c 0.708704,25.98587 2.64344,43.59113 1.41741,43.51451 -2.267857,-0.14174 -1.322917,-37.93936 -1.41741,-43.51451 z"
       id="path1001"
       inkscape:connector-curvature="0"
       sodipodi:nodetypes="csc" />
    <path
       inkscape:connector-curvature="0"
       id="rect874-6-3-2-1-3"
       d="m 51.67387,117.18838 c 5.97472,0.67687 10.4167,1.20301 16.41151,1.21557 0,0 0,0 0,0 6.092345,0.0128 10.583928,-0.53072 16.660989,-1.21921 2.431924,-0.27552 4.419059,1.44463 4.434538,3.9352 0.05361,8.62614 0.05343,17.37847 -5.35e-4,25.88262 -0.01494,2.35438 -2.003292,4.44485 -4.434435,4.68016 -6.164883,0.59672 -10.480224,1.09459 -16.660617,1.08155 0,0 0,0 0,0 -6.08253,-0.0128 -10.34892,-0.49392 -16.41114,-1.08207 -2.42887,-0.23565 -4.41148,-2.32885 -4.4239,-4.68334 -0.0448,-8.50301 -0.045,-17.25413 -4.4e-4,-25.87871 0.0129,-2.48966 1.99449,-4.20701 4.42403,-3.93177 z"
       style="opacity:1;vector-effect:none;fill:#f2f2f2;fill-opacity:1;stroke:#000000;stroke-width:0;stroke-linecap:round;stroke-linejoin:round;stroke-miterlimit:4;stroke-dasharray:none;stroke-dashoffset:0;stroke-opacity:1" />
    <path
       inkscape:connector-curvature="0"
       id="rect874-5-2-0-8"
       d="m 52.8111,118.73698 c 5.49705,0.5719 9.76343,0.99857 15.27522,1.00916 0,0 0,0 0,0 5.608278,0.0108 9.926011,-0.42924 15.523707,-1.01277 2.239757,-0.23349 4.063121,1.33904 4.074041,3.59911 0.03766,7.79327 0.03752,15.75197 -4.12e-4,23.59073 -0.01065,2.20074 -1.834671,4.1495 -4.073974,4.3515 -5.662488,0.51077 -9.850182,0.91459 -15.523412,0.90362 0,0 0,0 0,0 -5.57619,-0.0108 -9.71364,-0.40187 -15.27493,-0.90356 -2.23735,-0.20183 -4.05663,-2.15203 -4.06517,-4.35271 -0.0304,-7.83751 -0.0305,-15.79478 -3.3e-4,-23.58741 0.009,-2.25945 1.82753,-3.83048 4.06526,-3.59767 z"
       style="opacity:1;vector-effect:none;fill:#f2f2f2;fill-opacity:1;stroke:#cf2f0f;stroke-width:0.49999994;stroke-linecap:round;stroke-linejoin:round;stroke-miterlimit:4;stroke-dasharray:none;stroke-dashoffset:0;stroke-opacity:1" />
    <path
       style="font-style:normal;font-variant:normal;font-weight:normal;font-stretch:normal;font-size:13.48947144px;line-height:1;font-family:Desyrel;-inkscape-font-specification:Desyrel;text-align:start;letter-spacing:0px;word-spacing:0px;text-anchor:start;fill:#3398f0;fill-opacity:1;stroke:none;stroke-width:0.26458332"
       d="m 60.52328,127.72318 c -0.0269,-0.13977 -0.0718,-0.30194 -0.13458,-0.48645 -0.0538,-0.18403 -0.11661,-0.36833 -0.18841,-0.55297 -0.0628,-0.18413 -0.13904,-0.36022 -0.22878,-0.52842 -0.0807,-0.17626 -0.16149,-0.32668 -0.24223,-0.45138 -0.1525,-0.23172 -0.31403,-0.41692 -0.48448,-0.55586 -0.16146,-0.14691 -0.34545,-0.2314 -0.55181,-0.25355 -0.29593,-0.0366 -0.65533,0.0758 -1.07706,0.33885 -0.26928,0.16194 -0.5522,0.37921 -0.84851,0.65272 -0.28738,0.26552 -0.57481,0.56234 -0.8623,0.89115 -0.27854,0.32943 -0.54811,0.68268 -0.80879,1.06024 -0.2517,0.36936 -0.47648,0.73772 -0.67434,1.10469 -0.28779,0.53777 -0.44081,0.98078 -0.45897,1.32526 -0.0182,0.3358 0.0626,0.5934 0.24218,0.7723 0.16166,0.15126 0.3817,0.23924 0.66017,0.26416 0.27845,0.0338 0.58382,0.0204 0.91614,-0.0399 0.16165,-0.026 0.33681,-0.0601 0.5254,-0.10215 0.18862,-0.051 0.38165,-0.10157 0.57925,-0.15195 0.19759,-0.0592 0.39061,-0.11867 0.57921,-0.17842 0.18859,-0.0597 0.35919,-0.12053 0.51186,-0.18236 -0.0179,-0.10676 -0.0404,-0.21371 -0.0672,-0.32087 -0.0179,-0.10663 -0.0448,-0.20932 -0.0807,-0.30809 -0.10774,-0.0414 -0.17953,-0.15113 -0.21539,-0.32888 -0.0359,-0.17773 -0.009,-0.34719 0.0809,-0.50826 0.0719,-0.13587 0.16617,-0.23957 0.28291,-0.31131 0.12571,-0.0712 0.24694,-0.10331 0.36364,-0.0965 0.0808,0.005 0.15262,0.0351 0.21544,0.0911 0.0718,0.0566 0.12117,0.1467 0.14808,0.27059 0.0359,0.14189 0.0718,0.32762 0.1076,0.55742 0.0359,0.22107 0.0763,0.41638 0.1211,0.58575 0.18858,-0.0863 0.37266,-0.17736 0.55226,-0.27305 0.17958,-0.0957 0.31879,-0.18039 0.41757,-0.25403 0.19755,-0.14729 0.34575,-0.29709 0.44453,-0.44915 0.10777,-0.15162 0.17963,-0.30923 0.21556,-0.47272 0.0449,-0.16306 0.0584,-0.33614 0.0405,-0.51921 -0.009,-0.18263 -0.0358,-0.3789 -0.0807,-0.58878 0,0 -1.1e-4,0 -1.1e-4,0 z m 1.01013,-0.22234 c 0.0628,0.27884 0.10319,0.55718 0.12115,0.83516 0.0179,0.26931 -0.004,0.53742 -0.0674,0.80438 -0.0629,0.25823 -0.17513,0.51056 -0.3368,0.75671 -0.16165,0.2374 -0.3862,0.4593 -0.67357,0.66498 -0.0898,0.0659 -0.19757,0.13538 -0.32329,0.20832 -0.11675,0.0646 -0.23798,0.12894 -0.3637,0.19302 -0.006,0.003 -0.37107,0.18904 -0.37718,0.19216 -0.12573,0.0552 -0.23795,0.10666 -0.33675,0.15441 0.0898,0.37531 0.18849,0.73863 0.29622,1.08977 0.11672,0.36048 0.24241,0.65994 0.37711,0.8978 0.0808,0.14628 0.17511,0.25323 0.28288,0.3207 0.10776,0.0675 0.21103,0.10348 0.30983,0.10805 0.15266,0.0249 0.26492,0.0878 0.33676,0.18907 0.0808,0.10167 0.11676,0.21027 0.10778,0.32592 -0.009,0.14242 -0.0629,0.26071 -0.16166,0.35464 -0.0898,0.10328 -0.22003,0.14664 -0.39067,0.12978 -0.29637,-0.0227 -0.56126,-0.11603 -0.79477,-0.27957 -0.23348,-0.15458 -0.41757,-0.36502 -0.55226,-0.63063 -0.17959,-0.3482 -0.32775,-0.71215 -0.44445,-1.09148 -0.11671,-0.37045 -0.22442,-0.73529 -0.32313,-1.09458 -0.18864,0.0692 -0.39508,0.14181 -0.61964,0.21781 -0.21553,0.0765 -0.43105,0.14409 -0.64659,0.20281 -0.20655,0.0681 -0.40413,0.12342 -0.59273,0.16594 -0.17962,0.0519 -0.32782,0.0879 -0.44458,0.10791 -0.61068,0.0985 -1.13629,0.0955 -1.57644,-0.009 -0.44022,-0.0957 -0.79063,-0.27934 -1.05117,-0.55153 -0.30546,-0.31911 -0.45807,-0.74558 -0.45772,-1.27905 3.5e-4,-0.54197 0.18962,-1.18038 0.56762,-1.90838 0.20699,-0.39381 0.4499,-0.79269 0.72869,-1.19585 0.27881,-0.41198 0.57991,-0.80257 0.90346,-1.1721 0.32354,-0.37824 0.6559,-0.71868 0.9972,-1.02236 0.34127,-0.31229 0.68249,-0.57111 1.02359,-0.77776 0.63688,-0.38202 1.22105,-0.54379 1.74997,-0.49077 0.39466,0.0354 0.7493,0.16885 1.0632,0.40049 0.31399,0.23171 0.57426,0.53566 0.7806,0.91352 0.18842,0.32577 0.36343,0.69795 0.52496,1.11742 0.16154,0.41952 0.2827,0.80362 0.36349,1.1523 0,0 -5e-5,-1e-5 -5e-5,-1e-5 z"
       id="path1676"
       inkscape:connector-curvature="0" />
    <path
       style="font-style:normal;font-variant:normal;font-weight:normal;font-stretch:normal;font-size:13.48947144px;line-height:1;font-family:Desyrel;-inkscape-font-specification:Desyrel;text-align:start;letter-spacing:0px;word-spacing:0px;text-anchor:start;fill:#3398f0;fill-opacity:1;stroke:none;stroke-width:0.26458332"
       d="m 70.829284,130.61478 c 0.05393,0.10392 0.06744,0.22177 0.04051,0.35366 -0.01794,0.12294 -0.09878,0.22973 -0.242506,0.31987 -0.206564,0.12625 -0.46269,0.24433 -0.768081,0.35323 -0.305443,0.10892 -0.628847,0.19518 -0.970217,0.25831 -0.26273,0.039 -0.5287,0.0285 -0.79806,-0.0316 0,0 0,0 0,0 0,0 0,0 0,0 0,0 0,0 0,0 -0.0438,-0.01 -0.0877,-0.0209 -0.1317,-0.0333 -0.31441,-0.0886 -0.55248,-0.25715 -0.7142,-0.50392 -0.0719,-0.12332 -0.13028,-0.25086 -0.17521,-0.38255 -0.036,-0.14037 -0.0629,-0.31116 -0.0809,-0.5121 -0.1796,0.22537 -0.3997,0.46369 -0.66016,0.71447 -0.26051,0.24206 -0.50746,0.43585 -0.74104,0.58121 -0.36835,0.23093 -0.72754,0.37749 -1.07792,0.43937 -0.35036,0.0707 -0.67815,0.0658 -0.98358,-0.0142 -0.26049,-0.0698 -0.48503,-0.19211 -0.67365,-0.36616 -0.17964,-0.17373 -0.31885,-0.39463 -0.41765,-0.66193 -0.0808,-0.24026 -0.13021,-0.50974 -0.14817,-0.80793 -0.009,-0.29783 2e-5,-0.59425 0.027,-0.88921 0.027,-0.29497 0.0674,-0.56689 0.12125,-0.81606 0.0628,-0.24877 0.12124,-0.44528 0.17514,-0.58992 0.0538,-0.13602 0.13468,-0.23196 0.24246,-0.28815 0.10776,-0.0562 0.22002,-0.0821 0.33675,-0.0779 0.1347,0.005 0.25148,0.0606 0.35025,0.16727 0.10777,0.0984 0.13022,0.23266 0.0673,0.4033 -0.0628,0.18789 -0.11672,0.39798 -0.16164,0.63052 -0.0449,0.23254 -0.0808,0.46586 -0.10776,0.69997 -0.027,0.22539 -0.0359,0.44313 -0.0269,0.65309 0.009,0.20996 0.0359,0.38592 0.0808,0.52755 0.0629,0.22104 0.20657,0.37059 0.43114,0.44746 0.15271,0.0484 0.33234,0.0535 0.53894,0.015 0.2156,-0.0383 0.43113,-0.12958 0.64672,-0.27376 0.52992,-0.35621 0.96561,-0.75978 1.30685,-1.20722 0.34124,-0.44745 0.58823,-0.87815 0.74081,-1.29076 0.0538,-0.12028 0.13916,-0.19707 0.25594,-0.23071 0.11675,-0.0423 0.23802,-0.0545 0.36375,-0.0367 0.12575,0.035 0.22906,0.0998 0.30993,0.19479 0.0809,0.0864 0.10332,0.19417 0.0674,0.32369 -0.0987,0.37989 -0.15252,0.72654 -0.16144,1.03942 -0.009,0.31289 0.0271,0.57894 0.10794,0.79739 0.0263,0.0639 0.0567,0.11961 0.0914,0.16719 0,0 0,0 0,0 0,0 0,0 0,0 0,0 0,0 0,0 0.0602,0.0826 0.13305,0.14064 0.21856,0.17391 0.13476,0.0524 0.28746,0.0697 0.45815,0.0516 0.26052,-0.0272 0.51202,-0.0858 0.754578,-0.1754 0.251478,-0.0985 0.467152,-0.19722 0.646764,-0.2957 0.152687,-0.0894 0.287475,-0.1133 0.40426,-0.0716 0.116803,0.0417 0.202174,0.12309 0.256109,0.24449 0,0 9.8e-5,0 9.8e-5,0 z"
       id="path1678"
       inkscape:connector-curvature="0" />
    <path
       style="font-style:normal;font-variant:normal;font-weight:normal;font-stretch:normal;font-size:13.48947144px;line-height:1;font-family:Desyrel;-inkscape-font-specification:Desyrel;text-align:start;letter-spacing:0px;word-spacing:0px;text-anchor:start;fill:#3398f0;fill-opacity:1;stroke:none;stroke-width:0.26458332"
       d="m 75.130565,130.62067 c 0.009,0.10485 -0.02687,0.21183 -0.107691,0.32081 -0.07183,0.10858 -0.197595,0.17565 -0.377272,0.20075 -0.125831,0.0229 -0.300891,0.074 -0.525538,0.15312 -0.215629,0.0699 -0.449156,0.15338 -0.700724,0.25011 -0.242549,0.0964 -0.494117,0.18825 -0.754644,0.27532 -0.25153,0.0956 -0.471683,0.16772 -0.660331,0.21663 -0.566016,0.14676 -1.010743,0.1507 -1.334209,0.0152 -0.314513,-0.1269 -0.543582,-0.44558 -0.687463,-0.95222 -0.04495,-0.16595 -0.07195,-0.3582 -0.08098,-0.57645 -5.2e-5,-0.2271 0.0089,-0.42329 0.02681,-0.5889 0.01791,-0.22654 0.04929,-0.44844 0.09414,-0.66579 0.05384,-0.21746 0.112167,-0.41294 0.174987,-0.58665 -0.05391,-0.0165 -0.08087,-0.0507 -0.08089,-0.10251 -1.8e-5,-0.0518 0.0089,-0.10372 0.0269,-0.15573 0.03591,-0.0781 0.08977,-0.17375 0.161592,-0.28682 0.07181,-0.12166 0.143649,-0.21745 0.215481,-0.28746 0.0898,-0.0703 0.188605,-0.11076 0.296392,-0.12144 0.116772,-0.0109 0.224582,-2.2e-4 0.323408,0.032 0.125785,0.0402 0.220135,0.1068 0.283063,0.20001 0.0719,0.0844 0.07645,0.18332 0.01361,0.29694 -0.09872,0.19203 -0.201961,0.44482 -0.309637,0.75887 -0.09871,0.31391 -0.157005,0.61471 -0.174888,0.90242 -0.0089,0.17432 -0.0089,0.33132 1.32e-4,0.47084 0.009,0.13953 0.02702,0.25721 0.054,0.35293 0.04497,0.17411 0.121357,0.29095 0.229184,0.35007 0.116791,0.0502 0.296515,0.0507 0.539066,9e-4 0.152696,-0.0301 0.350406,-0.0921 0.592928,-0.18667 0.24256,-0.0946 0.494084,-0.19427 0.754602,-0.29928 0.269489,-0.11406 0.530008,-0.21533 0.781527,-0.30369 0.260521,-0.0887 0.480584,-0.13711 0.660275,-0.1447 0.179673,-0.0163 0.31445,0.0258 0.404332,0.12687 0.09887,0.10068 0.152814,0.21215 0.161846,0.33456 0,0 -2e-6,0 -2e-6,0 z m -2.617374,-5.68563 c 0.107829,0.0639 0.188724,0.14978 0.242697,0.25794 0.05397,0.0997 0.08099,0.20889 0.08108,0.32773 8e-5,0.11034 -0.02678,0.22603 -0.0806,0.34702 -0.05382,0.11247 -0.139088,0.20913 -0.255803,0.28966 -0.152649,0.10729 -0.327742,0.15969 -0.525377,0.1569 -0.197641,-0.003 -0.377288,-0.0747 -0.539076,-0.21531 -0.152788,-0.14928 -0.229242,-0.33446 -0.229375,-0.55472 0.0088,-0.22905 0.125485,-0.42176 0.349922,-0.57979 0.134646,-0.0965 0.291819,-0.14736 0.471431,-0.15291 0.179615,-0.005 0.341337,0.0355 0.485097,0.12348 z"
       id="path1680"
       inkscape:connector-curvature="0" />
    <path
       style="font-style:normal;font-variant:normal;font-weight:normal;font-stretch:normal;font-size:13.48947144px;line-height:1;font-family:Desyrel;-inkscape-font-specification:Desyrel;text-align:start;letter-spacing:0px;word-spacing:0px;text-anchor:start;fill:#3398f0;fill-opacity:1;stroke:none;stroke-width:0.26458332"
       d="m 77.699909,127.90725 c 9.7e-5,0.11292 -0.04023,0.21968 -0.120998,0.3201 -0.08077,0.0917 -0.206482,0.14691 -0.377144,0.16533 -0.196858,0.0112 -0.485809,0.0188 -0.862332,0.0215 -0.368225,0.002 -0.732164,0.012 -1.091408,0.0292 1.49e-4,0.24281 0.0093,0.49868 0.02739,0.7678 0.01811,0.26041 0.04069,0.51682 0.06776,0.76916 0.03605,0.24319 0.07208,0.4781 0.108109,0.70466 0.03603,0.22656 0.07652,0.42257 0.1215,0.58777 0.03599,0.14801 0.01357,0.2725 -0.06727,0.37323 -0.07185,0.10914 -0.166156,0.17963 -0.282948,0.21129 -0.125784,0.0409 -0.256036,0.0289 -0.390833,-0.036 -0.134783,-0.056 -0.224655,-0.17585 -0.269631,-0.35889 -0.09894,-0.38334 -0.179941,-0.83667 -0.243046,-1.35854 -0.05412,-0.52219 -0.08132,-1.0607 -0.08163,-1.61502 -0.327998,0.0138 -0.655663,0.0266 -0.98367,0.0384 -0.161701,0.0145 -0.287484,-0.0246 -0.377367,-0.11663 -0.0809,-0.0924 -0.121375,-0.19901 -0.121436,-0.31976 -6.1e-5,-0.12077 0.04031,-0.22977 0.121104,-0.32723 0.08079,-0.10607 0.206522,-0.17062 0.377186,-0.19411 0.115724,-0.004 0.261556,-0.01 0.431176,-0.0165 0.170668,-0.0154 0.35481,-0.0273 0.552428,-0.0358 -1.72e-4,-0.26699 0.0086,-0.5725 0.02632,-0.91592 0.0267,-0.34383 0.06234,-0.69986 0.10694,-1.06792 0.05357,-0.37699 0.111608,-0.74871 0.174111,-1.11531 0.07148,-0.37549 0.147435,-0.72893 0.227877,-1.06075 -0.09882,-0.0367 -0.13032,-0.11481 -0.09455,-0.23405 0.01789,-0.0596 0.05373,-0.12859 0.10751,-0.20688 0.05377,-0.0867 0.103058,-0.1689 0.147853,-0.24668 4.6e-5,-1.1e-4 0.05367,-0.12831 0.05371,-0.12842 0.01789,-0.0512 0.0358,-0.0939 0.05371,-0.12837 0.06267,-0.13719 0.161329,-0.22217 0.295936,-0.25533 0.134593,-0.0415 0.260312,-0.0326 0.377083,0.0268 0.09881,0.0439 0.179694,0.10978 0.242657,0.19783 0.06296,0.088 0.09005,0.19523 0.08124,0.32166 1.25e-4,0.0923 -0.01772,0.17322 -0.05354,0.24269 -0.03583,0.0611 -0.07615,0.12662 -0.120949,0.19665 -0.08044,0.28248 -0.156375,0.60729 -0.22779,0.9751 -0.07142,0.36784 -0.13837,0.74915 -0.20085,1.14423 -0.05351,0.38608 -0.09807,0.77289 -0.13367,1.16049 -0.02662,0.38715 -0.03983,0.73629 -0.03961,1.04677 0.09888,-0.005 0.233461,-0.007 0.404204,-0.007 0.17963,-0.009 0.363782,-0.0147 0.552397,-0.0162 0.19761,-0.002 0.390719,1.2e-4 0.579353,0.007 0.197664,-0.003 0.363712,6.7e-4 0.498513,0.0101 0.134741,0.009 0.233585,0.0597 0.296544,0.15137 0.07193,0.0824 0.107948,0.18007 0.108046,0.293 0,0 10e-7,0 10e-7,0 z"
       id="path1682"
       inkscape:connector-curvature="0" />
    <path
       style="font-style:normal;font-variant:normal;font-weight:normal;font-stretch:normal;font-size:13.48947144px;line-height:1;font-family:Desyrel;-inkscape-font-specification:Desyrel;text-align:start;letter-spacing:0px;word-spacing:0px;text-anchor:start;fill:#3398f0;fill-opacity:1;stroke:none;stroke-width:0.26458332"
       d="m 62.92433,134.8972 c 0.21548,0.20397 0.20668,0.45439 -0.027,0.75184 -0.14366,0.16564 -0.36832,0.37817 -0.67363,0.63678 -0.30533,0.24962 -0.64671,0.5247 -1.02385,0.82477 -0.36821,0.29146 -0.74085,0.59579 -1.11798,0.91315 -0.36819,0.30874 -0.69132,0.61008 -0.96966,0.90473 -0.37704,0.38946 -0.56549,0.75223 -0.5654,1.08959 8e-5,0.30076 0.17075,0.62514 0.51198,0.97275 0.11673,0.12517 0.26492,0.27497 0.4445,0.44934 0.1886,0.17488 0.38158,0.3545 0.57917,0.53904 0.19753,0.18451 0.3861,0.36857 0.56568,0.5522 0.18856,0.17486 0.3457,0.32516 0.4714,0.45093 0.59263,0.65481 0.88894,1.28247 0.88898,1.88613 0.009,0.251 -0.0314,0.49086 -0.12113,0.71925 -0.0897,0.22839 -0.21539,0.44593 -0.37691,0.65218 -0.16153,0.19694 -0.33651,0.37437 -0.52493,0.53208 -0.17946,0.15818 -0.35888,0.30204 -0.5383,0.43158 -0.17943,0.12953 -0.35433,0.24032 -0.52476,0.33244 -0.17041,0.10143 -0.3229,0.18502 -0.45741,0.25092 -0.15247,0.0648 -0.29596,0.0693 -0.43054,0.0139 -0.12559,-0.0455 -0.22431,-0.14052 -0.29614,-0.2847 -0.0718,-0.11631 -0.0943,-0.24318 -0.0674,-0.38064 0.0269,-0.12819 0.1165,-0.2336 0.26894,-0.31664 0.11656,-0.0575 0.25115,-0.12789 0.4036,-0.2113 0.16146,-0.0829 0.31843,-0.17557 0.47094,-0.27805 0.16148,-0.10196 0.31398,-0.21863 0.45753,-0.34994 0.15252,-0.12152 0.2871,-0.2582 0.40374,-0.40986 0.1974,-0.24952 0.29609,-0.50451 0.29604,-0.76399 -0.009,-0.33423 -0.20658,-0.71404 -0.59266,-1.14015 -0.11672,-0.12603 -0.26935,-0.27697 -0.4579,-0.45284 -0.17957,-0.18461 -0.36812,-0.36505 -0.56565,-0.54135 -0.18856,-0.18501 -0.37712,-0.36077 -0.56567,-0.52731 -0.17957,-0.1752 -0.32776,-0.32108 -0.44448,-0.43761 -0.59264,-0.5649 -0.88914,-1.13464 -0.88935,-1.70816 -0.009,-0.54705 0.28691,-1.12964 0.88839,-1.7501 0.27833,-0.29333 0.58353,-0.58512 0.91577,-0.87575 0.33222,-0.29061 0.65548,-0.55922 0.96978,-0.80594 0.32325,-0.2553 0.61966,-0.48512 0.88906,-0.68928 0.26938,-0.21314 0.48502,-0.39291 0.64664,-0.53888 0.036,-0.14204 0.0943,-0.26512 0.17514,-0.3694 0.0808,-0.10427 0.18412,-0.17631 0.30987,-0.21633 0.13471,-0.0397 0.26048,-0.0441 0.37724,-0.0131 0.11676,0.0309 0.21556,0.0835 0.2964,0.15777 0,0 -3e-5,0 -3e-5,0 z"
       id="path1684"
       inkscape:connector-curvature="0" />
    <path
       style="font-style:normal;font-variant:normal;font-weight:normal;font-stretch:normal;font-size:13.48947144px;line-height:1;font-family:Desyrel;-inkscape-font-specification:Desyrel;text-align:start;letter-spacing:0px;word-spacing:0px;text-anchor:start;fill:#3398f0;fill-opacity:1;stroke:none;stroke-width:0.26458332"
       d="m 66.67168,141.59814 c -2e-5,0.11963 -0.0405,0.22973 -0.12132,0.33013 -0.0808,0.0912 -0.20661,0.14035 -0.37726,0.14709 -0.19691,-0.003 -0.48569,-0.0166 -0.86223,-0.0427 -0.36823,-0.0259 -0.73199,-0.0439 -1.09123,-0.0539 -2e-5,0.25787 0.009,0.53015 0.0269,0.81698 0.0179,0.27759 0.0404,0.55109 0.0672,0.82046 0.0359,0.26037 0.0718,0.5118 0.10769,0.75425 0.0359,0.24245 0.0763,0.4528 0.12115,0.63085 0.0359,0.15917 0.0135,0.289 -0.0674,0.38922 -0.0718,0.10979 -0.16614,0.177 -0.28287,0.20143 -0.12572,0.0335 -0.25589,0.0107 -0.39058,-0.0683 -0.13467,-0.0697 -0.22445,-0.2032 -0.26933,-0.4001 -0.0987,-0.41274 -0.17953,-0.89847 -0.24238,-1.45617 -0.0538,-0.55736 -0.0808,-1.13073 -0.0807,-1.71978 -0.32791,-0.0111 -0.65545,-0.0233 -0.98333,-0.0363 -0.16163,0.003 -0.28734,-0.0485 -0.37714,-0.15329 -0.0808,-0.10447 -0.12124,-0.221 -0.12125,-0.34949 -1e-5,-0.12851 0.0404,-0.24144 0.12121,-0.33896 0.0808,-0.10669 0.20652,-0.16569 0.37715,-0.17736 0.11524,0.005 0.26193,0.0101 0.43106,0.0163 0.17065,-0.003 0.35471,-10e-4 0.55232,0.006 0,-0.28426 0.009,-0.60907 0.027,-0.97395 0.027,-0.36459 0.0629,-0.74185 0.1078,-1.13159 0.0539,-0.39856 0.11226,-0.79151 0.17516,-1.17889 0.0719,-0.39616 0.14822,-0.76863 0.22907,-1.11768 -0.0988,-0.0479 -0.13023,-0.13445 -0.0943,-0.25937 0.018,-0.0625 0.0539,-0.13339 0.10778,-0.21276 0.0539,-0.0884 0.10328,-0.17233 0.14823,-0.2519 -3e-5,7e-5 0.054,-0.13324 0.0539,-0.13317 0.018,-0.0534 0.036,-0.0977 0.0539,-0.13311 0.0629,-0.1418 0.16168,-0.22423 0.29644,-0.24768 0.13473,-0.0324 0.26051,-0.0115 0.37729,0.0629 0.0988,0.056 0.17965,0.13401 0.24253,0.23404 0.0629,0.10003 0.0898,0.21726 0.0808,0.35185 0,0.0988 -0.018,0.18388 -0.054,0.25507 -0.036,0.0622 -0.0764,0.12882 -0.12128,0.19985 -0.0808,0.29532 -0.15721,0.63632 -0.22909,1.02353 -0.0719,0.38722 -0.13926,0.78904 -0.20216,1.20564 -0.0539,0.40774 -0.0988,0.81669 -0.1348,1.22685 -0.027,0.4104 -0.0405,0.78101 -0.0405,1.11129 0.0989,0.003 0.23339,0.0108 0.40417,0.0242 0.17963,0.004 0.36376,0.0132 0.55238,0.0263 0.1976,0.0133 0.39072,0.0307 0.57934,0.0523 0.19765,0.0125 0.36371,0.0287 0.4985,0.049 0.13473,0.0202 0.23351,0.0811 0.29637,0.18291 0.0718,0.0927 0.10775,0.19889 0.10773,0.31853 0,0 -7e-5,0 -7e-5,0 z"
       id="path1686"
       inkscape:connector-curvature="0" />
    <path
       style="font-style:normal;font-variant:normal;font-weight:normal;font-stretch:normal;font-size:13.48947144px;line-height:1;font-family:Desyrel;-inkscape-font-specification:Desyrel;text-align:start;letter-spacing:0px;word-spacing:0px;text-anchor:start;fill:#3398f0;fill-opacity:1;stroke:none;stroke-width:0.26458332"
       d="m 70.807243,143.95433 c 0.170785,-0.2167 0.220266,-0.44027 0.148533,-0.67027 -0.06278,-0.23026 -0.197418,-0.41711 -0.403963,-0.56155 -0.134829,0.002 -0.296341,0.009 -0.485066,0.0211 -0.179647,0.002 -0.350317,-3.9e-4 -0.511988,-0.008 -0.251489,0.002 -0.453599,-0.038 -0.606249,-0.12042 -0.14369,-0.0917 -0.19303,-0.20706 -0.14809,-0.34561 -0.0449,-0.0275 -0.0943,-0.0319 -0.1482,-0.0134 -0.0448,0.0186 -0.10331,0.0418 -0.17517,0.0696 -0.12507,0.0859 -0.25412,0.2061 -0.3871,0.36078 0,0 0,0 0,0 -0.0676,0.0786 -0.13621,0.16615 -0.20585,0.2626 -0.20665,0.28622 -0.33695,0.60964 -0.39095,0.9714 -0.081,0.44509 -0.0541,0.77116 0.0805,0.97677 0.1132,0.17679 0.28504,0.28449 0.51547,0.32216 0,0 0,0 0,0 0,0 0,0 0,0 0,0 0,0 0,0 0.0619,0.0101 0.12798,0.0152 0.19832,0.0152 0.2604,0.009 0.49391,-0.005 0.70047,-0.0439 0.21554,-0.0478 0.4042,-0.10996 0.565877,-0.18608 0.233563,-0.10478 0.458145,-0.25195 0.673806,-0.44118 0.215643,-0.18921 0.408871,-0.39238 0.57963,-0.60904 0,0 3e-5,0 3e-5,0 z m 1.79289,-1.73708 c -3.7e-5,0.0737 -0.01804,0.14806 -0.05401,0.22295 -0.03597,0.0749 -0.0899,0.13189 -0.161777,0.17091 -0.15269,0.0506 -0.354901,0.0794 -0.606378,0.0858 0.05386,0.0725 0.103219,0.17289 0.148063,0.30115 0.05383,0.12802 0.0807,0.27529 0.08061,0.44197 0.0089,0.16642 -0.01816,0.34787 -0.08115,0.54439 -0.054,0.19624 -0.161913,0.39421 -0.323692,0.59348 -0.494432,0.61674 -1.033413,1.0666 -1.617381,1.34543 -0.251535,0.12484 -0.516481,0.21184 -0.794898,0.26061 -0.2784,0.0488 -0.57475,0.0781 -0.88903,0.0875 -0.0726,0.002 -0.14322,0.001 -0.2118,-0.002 0,0 0,0 0,0 0,0 0,0 0,0 0,0 0,0 0,0 -0.70293,-0.0294 -1.19361,-0.29713 -1.47157,-0.79349 -0.24236,-0.44156 -0.28708,-1.03391 -0.13426,-1.77373 0.0539,-0.27753 0.13482,-0.54042 0.24267,-0.78895 0.11682,-0.25768 0.25608,-0.49179 0.4178,-0.7027 0.16171,-0.21092 0.34139,-0.39866 0.53903,-0.56357 0.13198,-0.11013 0.26796,-0.20804 0.40794,-0.2938 0,0 0,0 0,0 0.0696,-0.0427 0.14028,-0.0823 0.2119,-0.11899 0.19761,-0.10116 0.40425,-0.14756 0.61982,-0.13939 0.21556,-10e-4 0.4132,0.0848 0.592783,0.25792 0.08085,-0.0283 0.170683,-0.043 0.269496,-0.044 0.09882,-0.0103 0.184153,-0.007 0.256013,0.0108 0.152701,0.0165 0.314394,0.0648 0.48504,0.14479 0.170665,0.0709 0.309854,0.15572 0.417623,0.25495 0.372949,-0.007 0.745468,-0.0156 1.118421,-0.0255 0.161696,-0.004 0.291937,0.0472 0.390696,0.15475 0.107746,0.10732 0.157093,0.2301 0.148039,0.36865 0,0 2e-6,0 2e-6,0 z"
       id="path1688"
       inkscape:connector-curvature="0" />
    <path
       style="font-style:normal;font-variant:normal;font-weight:normal;font-stretch:normal;font-size:13.48947144px;line-height:1;font-family:Desyrel;-inkscape-font-specification:Desyrel;text-align:start;letter-spacing:0px;word-spacing:0px;text-anchor:start;fill:#3398f0;fill-opacity:1;stroke:none;stroke-width:0.26458332"
       d="m 78.145044,142.08626 c -0.06297,0.10452 -0.148357,0.17831 -0.256161,0.22125 -0.09883,0.0424 -0.215557,0.0308 -0.35021,-0.0351 -0.09875,-0.0403 -0.188539,-0.0629 -0.269362,-0.0676 -0.07183,-0.0144 -0.143686,-0.0104 -0.215551,0.0119 -0.143724,0.0262 -0.314389,0.0768 -0.512039,0.15153 -0.188672,0.0743 -0.390795,0.16293 -0.606431,0.26583 -0.215623,0.1029 -0.431268,0.21938 -0.64691,0.34948 -0.206659,0.12967 -0.404354,0.25874 -0.593048,0.38723 -0.152767,0.10842 -0.283062,0.21574 -0.390919,0.32209 -0.107857,0.10636 -0.184259,0.2021 -0.229231,0.28733 -0.07195,0.13265 -0.121435,0.2598 -0.148471,0.38148 -0.02703,0.1124 -0.04957,0.23395 -0.06763,0.36469 -0.0181,0.17717 -0.07658,0.30972 -0.175431,0.39736 -0.08987,0.078 -0.197663,0.11946 -0.323395,0.12423 -0.125739,0.005 -0.237953,-0.0377 -0.336684,-0.1272 -0.09872,-0.0895 -0.152514,-0.22727 -0.161368,-0.41284 -0.0089,-0.17627 -0.01322,-0.38043 -0.01306,-0.61232 0,-5e-5 4.33e-4,-0.69481 4.33e-4,-0.69486 1.44e-4,-0.2406 0.0048,-0.46718 0.01387,-0.67982 0.01809,-0.22216 0.03616,-0.41639 0.05421,-0.58281 -0.06287,-0.0164 -0.103279,-0.052 -0.121214,-0.10666 -0.009,-0.055 0.0045,-0.11065 0.04051,-0.16702 0.05394,-0.0846 0.0989,-0.16881 0.13487,-0.25274 0.03597,-0.0839 0.07195,-0.17243 0.107926,-0.26549 0.04498,-0.13009 0.121375,-0.21062 0.229187,-0.24186 0.116796,-0.0407 0.238084,-0.0496 0.363832,-0.0266 0.0988,0.0331 0.18411,0.0895 0.255932,0.16942 0.0808,0.0795 0.107701,0.18405 0.08068,0.31376 -0.01801,0.0834 -0.03603,0.18062 -0.05406,0.2917 -0.01803,0.11109 -0.03606,0.22683 -0.0541,0.34726 -2.2e-5,3e-4 -0.02714,0.36017 -0.02716,0.36047 -1.2e-5,0.0194 -1.69e-4,0.27126 -1.81e-4,0.29062 0.06292,-0.0763 0.12135,-0.13857 0.175269,-0.18684 0.06291,-0.0486 0.130306,-0.10206 0.202198,-0.16031 0.197707,-0.14636 0.426827,-0.29417 0.687412,-0.44375 0.260568,-0.14956 0.525645,-0.28589 0.795177,-0.40904 0.269541,-0.13232 0.534594,-0.24185 0.795123,-0.32856 0.26953,-0.0872 0.507565,-0.14103 0.714172,-0.16135 0.179648,-0.0189 0.341315,-0.005 0.48498,0.042 0.143679,0.0469 0.255888,0.0954 0.336688,0.14575 0.125661,0.0935 0.188422,0.21342 0.188286,0.35997 -1.27e-4,0.13738 -0.03617,0.26319 -0.108128,0.37741 0,0 2e-6,0 2e-6,0 z"
       id="path1690"
       inkscape:connector-curvature="0" />
    <path
       style="font-style:normal;font-variant:normal;font-weight:normal;font-stretch:normal;font-size:13.48947144px;line-height:1;font-family:Desyrel;-inkscape-font-specification:Desyrel;text-align:start;letter-spacing:0px;word-spacing:0px;text-anchor:start;fill:#3398f0;fill-opacity:1;stroke:none;stroke-width:0.26458332"
       d="m 81.572586,140.92119 c 0.06326,-0.28578 0.04552,-0.47101 -0.05324,-0.55611 -0.07184,-0.0412 -0.161689,-0.0496 -0.269537,-0.025 -0.10785,0.0245 -0.202235,0.062 -0.28315,0.11226 -0.116875,0.0797 -0.256295,0.20633 -0.418176,0.38003 -0.188868,0.20265 -0.373305,0.4509 -0.553271,0.74499 -0.170981,0.28443 -0.301544,0.57599 -0.391711,0.87462 0.197643,-0.0489 0.404268,-0.12586 0.619964,-0.23073 0.215675,-0.10487 0.41794,-0.22709 0.606747,-0.36652 0.188808,-0.13942 0.346223,-0.28585 0.472194,-0.43926 0.134973,-0.16308 0.225038,-0.32778 0.270175,-0.49423 0,0 2e-6,-1e-5 2e-6,-1e-5 z m 2.785781,2.50772 c 0.06264,0.11429 0.0713,0.24065 0.02599,0.37927 -0.03631,0.13811 -0.139945,0.23941 -0.310842,0.30425 -0.206841,0.0851 -0.472299,0.20614 -0.795978,0.36367 -0.323551,0.14839 -0.678921,0.29543 -1.065148,0.44068 -0.386323,0.14529 -0.795133,0.26101 -1.226088,0.34628 -0.431105,0.0945 -0.852851,0.1196 -1.265728,0.0743 -0.421837,-0.0447 -0.740179,-0.17555 -0.955368,-0.39211 -0.41239,-0.37884 -0.55086,-0.94758 -0.415318,-1.70049 0.05428,-0.35266 0.13994,-0.68367 0.257008,-0.99318 0.126048,-0.31004 0.261051,-0.59266 0.405005,-0.84803 0.143951,-0.25538 0.28789,-0.48302 0.431794,-0.68306 0.152881,-0.20057 0.292292,-0.36824 0.418173,-0.50312 0.12589,-0.13488 0.251777,-0.25601 0.377651,-0.36341 0.125879,-0.1165 0.238274,-0.2003 0.337149,-0.25149 0.107872,-0.0608 0.224733,-0.11301 0.350571,-0.15662 0.134833,-0.0532 0.269663,-0.0882 0.404477,-0.10505 0.14381,-0.0264 0.283123,-0.0344 0.417926,-0.0239 0.134804,0.0105 0.260606,0.0487 0.377385,0.11465 0.134748,0.074 0.238018,0.17248 0.309784,0.29539 0.07177,0.12292 0.121042,0.26071 0.147812,0.41341 0.02678,0.14363 0.03106,0.30216 0.01285,0.47566 -0.0092,0.16393 -0.03192,0.32414 -0.0681,0.48069 -0.08134,0.30454 -0.234565,0.59545 -0.459615,0.87323 -0.216027,0.26809 -0.472483,0.51206 -0.769195,0.73176 -0.296705,0.2197 -0.615864,0.40953 -0.957292,0.56896 -0.341487,0.1503 -0.66927,0.24951 -0.983633,0.29713 -0.02725,0.23134 0.0084,0.41294 0.106989,0.5444 0.09859,0.12229 0.246594,0.19527 0.444074,0.21889 0.305219,0.0532 0.637276,0.0399 0.996603,-0.0393 0.368243,-0.089 0.727637,-0.20007 1.078107,-0.33281 0.359379,-0.1333 0.696661,-0.27372 1.01131,-0.42088 0.323691,-0.14775 0.589092,-0.25915 0.795938,-0.3349 0.14391,-0.0539 0.260775,-0.0515 0.350513,0.007 0.09876,0.0488 0.1705,0.12176 0.215198,0.21892 0,0 10e-7,0 10e-7,0 z"
       id="path1692"
       inkscape:connector-curvature="0" />
    <path
       style="opacity:0.75;fill:#ffffff;fill-opacity:1;stroke:none;stroke-width:5.77350235;stroke-linecap:round;stroke-linejoin:round;stroke-miterlimit:4;stroke-dasharray:none;stroke-opacity:1;paint-order:stroke markers fill;filter:url(#filter1571)"
       d="m 31.389591,97.151037 h 7.964362 l 0.0167,68.031423 c -2.477811,-0.15233 -6.121316,-0.83919 -7.981066,-1.74321 z"
       id="rect882"
       inkscape:connector-curvature="0"
       sodipodi:nodetypes="ccccc" />
    <path
       style="opacity:0.5;fill:#ffffff;fill-opacity:1;stroke:none;stroke-width:5.77350235;stroke-linecap:round;stroke-linejoin:round;stroke-miterlimit:4;stroke-dasharray:none;stroke-opacity:1;paint-order:stroke markers fill;filter:url(#filter1567)"
       d="m 38.017605,97.017402 h 7.964362 l 0.0167,68.031428 c -2.477811,-0.15233 -6.121316,-0.83919 -7.981066,-1.74321 z"
       id="rect882-3"
       inkscape:connector-curvature="0"
       sodipodi:nodetypes="ccccc" />
    <path
       style="opacity:1;fill:#cf2f0f;fill-opacity:1;stroke:none;stroke-width:10.54774189;stroke-linecap:round;stroke-linejoin:round;stroke-miterlimit:4;stroke-dasharray:none;stroke-opacity:1;paint-order:stroke markers fill"
       d="m 24.912098,86.151205 v 6.874421 c 0.02851,14.326294 32.49885,15.932614 43.306955,15.955364 10.808099,0.0228 43.441717,-1.5895 43.306437,-15.955364 v -6.874421 z"
       id="path815-7"
       inkscape:connector-curvature="0"
       sodipodi:nodetypes="cczccc" />
    <path
       sodipodi:nodetypes="ccccccccccccc"
       style="opacity:1;fill:#f26c53;fill-opacity:1;stroke:none;stroke-width:10.54774189;stroke-linecap:round;stroke-linejoin:round;stroke-miterlimit:4;stroke-dasharray:none;stroke-opacity:1;paint-order:stroke markers fill"
       d="m 68.219055,70.227226 c -10.780969,0.02269 -43.112125,1.63043 -43.30273,15.84917 h -0.0042 c 3.7e-5,0.0181 0.0019,0.03537 0.0022,0.05336 -1.38e-4,0.01789 -0.002,0.03496 -0.0022,0.05285 h 0.0042 c 0.190478,14.218824 32.521739,15.826474 43.30273,15.849164 10.781057,0.0226 43.275465,-1.59049 43.303795,-15.849164 h 0.003 c 1.7e-4,-0.0181 -0.002,-0.03537 -0.002,-0.05336 -7e-5,-0.01779 0.002,-0.03496 0.002,-0.05285 h -0.003 C 111.49452,71.818039 79.000112,70.204582 68.219055,70.227226 Z"
       id="path815-3"
       inkscape:connector-curvature="0" />
    <path
       style="fill:#ffffff;stroke-width:0.26458341"
       inkscape:connector-curvature="0"
       d="M 97.590936,85.131035 70.936153,75.343704 c -1.533649,-0.563723 -4.023102,-0.563723 -5.558677,0 -8.842982,3.247463 -17.686582,6.494705 -26.529755,9.742111 -1.535522,0.564155 -1.535522,1.478367 0,2.042128 l 26.653209,9.787361 c 1.5345,0.563713 4.023089,0.563713 5.559752,0 l 26.529935,-9.741122 c 1.53504,-0.563992 1.53504,-1.478483 0,-2.04232"
       id="path28556-8-1-6-8-7-4"
       sodipodi:nodetypes="ccccccccc" />
    <path
       style="fill:#f05133;stroke-width:0.26458341"
       inkscape:connector-curvature="0"
       d="M 97.647628,85.129149 70.941399,75.323327 c -1.53661,-0.564788 -4.030869,-0.564788 -5.569407,0 l -5.545265,2.036519 7.033971,2.583007 c 1.635242,-0.202746 3.509532,-0.06677 4.812391,0.411716 1.309621,0.481507 1.677159,1.175661 1.111196,1.778163 l 6.779502,2.489558 c 1.640168,-0.207557 3.532557,-0.07341 4.842233,0.408329 1.831023,0.672188 1.831023,1.761403 0,2.433765 -1.831293,0.672582 -4.797405,0.672582 -6.629717,0 -1.376785,-0.505974 -1.717316,-1.24882 -1.019984,-1.871739 l -6.322633,-2.321794 -5.34e-4,6.109759 c 0.446399,0.0811 0.867675,0.189458 1.239667,0.325462 1.830486,0.672112 1.830486,1.761125 0,2.434361 -1.831015,0.672092 -4.798471,0.672092 -6.627566,0 -1.830746,-0.673169 -1.830746,-1.762192 0,-2.434361 0.452446,-0.165848 0.975947,-0.291375 1.534556,-0.375521 v -6.166532 c -0.558871,-0.0838 -1.081769,-0.208384 -1.53487,-0.37556 -1.386736,-0.508832 -1.720706,-1.256219 -1.009536,-1.881542 l -6.934097,-2.546736 -18.310271,6.723662 c -1.538485,0.565221 -1.538485,1.48116 0,2.045986 l 26.704647,9.80585 c 1.537464,0.564778 4.030858,0.564778 5.570483,0 l 26.581141,-9.759525 c 1.538003,-0.565057 1.538003,-1.481275 0,-2.046178"
       id="path28556-8-1-2-9-0" />
    <path
       style="fill:#ffe680;stroke:#ffe680;stroke-width:0.5;stroke-linecap:round;stroke-linejoin:miter;stroke-miterlimit:4;stroke-dasharray:none;stroke-opacity:1"
       d="M 90.641191,119.16269 86.882238,114.7018"
       id="path856-3-6-8"
       inkscape:connector-curvature="0"
       sodipodi:nodetypes="cc" />
  </g>
</svg>
